<svg id="ctrl-new" viewBox="0 0 300 300" xmlns="http://www.w3.org/2000/svg">
	<g id="ctrl-new-s-g1" transform="translate(2.94693 2.946991)">
		<path id="ctrl-new-s-path1" d="M5.89398,33.78614c0-15.40441,12.48775-27.89216,27.89216-27.89216.00252,0,.00503,0,.00755,0h232.41261c.00252,0,.00503,0,.00755,0c15.40441,0,27.89216,12.48775,27.89216,27.89216c0,0,0,0,0,0h.00014v232.42772h-.00014c0,15.40441-12.48775,27.89216-27.89216,27.89216v0h-232.42772v0c0,0,0,0,0,0-15.40441,0-27.89216-12.48775-27.89216-27.89216c0-.02136.00002-.04272.00007-.06406v-232.29959c-.00005-.02135-.00007-.0427-.00007-.06406l.00001-.00001Z" fill="#ecf400" strokeWidth="0"/>
		<path id="ctrl-new-s-path2" d="M5.89398,33.78614c0-15.40441,12.48775-27.89216,27.89216-27.89216.00252,0,.00503,0,.00755,0h232.41261c.00252,0,.00503,0,.00755,0c15.40441,0,27.89216,12.48775,27.89216,27.89216c0,0,0,0,0,0h.00014v232.42772h-.00014c0,15.40441-12.48775,27.89216-27.89216,27.89216v0h-232.42772v0c0,0,0,0,0,0-15.40441,0-27.89216-12.48775-27.89216-27.89216c0-.02136.00002-.04272.00007-.06406v-232.29959c-.00005-.02135-.00007-.0427-.00007-.06406l.00001-.00001Z" fill="#1b1b1b" strokeWidth="0" transform="translate(-5.89397-5.89398)"/>
		<text id="ctrl-new-s-text1" dx="0" dy="0" fill="#ecf400" fontFamily="&quot;ctrl-new:::Arial Black&quot;" fontSize="15" strokeWidth="0" transform="matrix(6.254939 0 0 6.254939 37.362723 126.39473)">
			<tspan id="ctrl-new-s-tspan1" strokeWidth="0" y="0">Tri</tspan>
		</text>
		<ellipse id="ctrl-new-s-ellipse1" fill="#ecf400" rx="15.56901" ry="15.56901" strokeWidth="0" transform="translate(58.068702 235.388607)"/>
		<ellipse id="ctrl-new-s-ellipse2" fill="#ecf400" rx="15.56901" ry="15.56901" strokeWidth="0" transform="translate(150.00006 235.388607)"/>
		<ellipse id="ctrl-new-s-ellipse3" fill="#ecf400" rx="15.56901" ry="15.56901" strokeWidth="0" transform="translate(104.812873 235.388607)"/>
	</g>
</svg>