<svg id="eHCxaNsK6B91" viewBox="0 0 300 300" xmlns="http://www.w3.org/2000/svg">
	<path d="M5.89398,33.78614c0-15.40441,12.48775-27.89216,27.89216-27.89216.00252,0,.00503,0,.00755,0h232.41261c.00252,0,.00503,0,.00755,0c15.40441,0,27.89216,12.48775,27.89216,27.89216c0,0,0,0,0,0h.00014v232.42772h-.00014c0,15.40441-12.48775,27.89216-27.89216,27.89216v0h-232.42772v0c0,0,0,0,0,0-15.40441,0-27.89216-12.48775-27.89216-27.89216c0-.02136.00002-.04272.00007-.06406v-232.29959c-.00005-.02135-.00007-.0427-.00007-.06406l.00001-.00001Z" fill="#d41fa7" strokeWidth="0"/>
	<path d="M5.89398,33.78614c0-15.40441,12.48775-27.89216,27.89216-27.89216.00252,0,.00503,0,.00755,0s232.41764,0,232.42016,0c15.40441,0,27.89216,12.48775,27.89216,27.89216h.00014v232.42772h-.00014c0,15.40441-12.48775,27.89216-27.89216,27.89216h-232.42772c-15.40441,0-27.89216-12.48775-27.89216-27.89216c0-.02136.00002-.04272.00007-.06406v-232.29959c-.00005-.02135-.00007-.0427-.00007-.06406l.00001-.00001Zm7.39667,5.96503c0,.02026.00002.04052.00007.06077v220.37612c-.00005.02024-.00007.04051-.00007.06077c0,14.61373,11.84678,26.46051,26.46051,26.46051h220.49767c14.61373,0,26.46051-11.84678,26.46051-26.46051h.00013v-220.49767h-.00013c0-14.61373-11.84678-26.46051-26.46051-26.46051-.00239,0-220.48811,0-220.4905,0s-.00477,0-.00716,0c-14.61373,0-26.46051,11.84678-26.46051,26.46051l-.00001.00001Z" fill="#fff" strokeWidth="0" transform="matrix(.925924 0 0 0.925924 11.111404 11.1114)"/>
	<text dx="0" dy="0" fill="#fff" fontFamily="&quot;eHCxaNsK6B91:::Montserrat&quot;" fontSize="15" strokeWidth="0" transform="matrix(6.254939 0 0 6.254939 37.362723 126.39473)">
		<tspan strokeWidth="0" y="0">Tsk</tspan>
	</text>
</svg>